<svg width="29" height="28" viewBox="0 0 29 28" fill="none" xmlns="http://www.w3.org/2000/svg">
<g id="calendar-line" opacity="0.5" clip-path="url(#clip0_2_110)">
<g id="Group">
<path id="Vector" d="M19.8508 3.49999H24.5174C24.8268 3.49999 25.1236 3.62291 25.3424 3.8417C25.5612 4.06049 25.6841 4.35724 25.6841 4.66666V23.3333C25.6841 23.6427 25.5612 23.9395 25.3424 24.1583C25.1236 24.3771 24.8268 24.5 24.5174 24.5H3.51742C3.208 24.5 2.91125 24.3771 2.69246 24.1583C2.47367 23.9395 2.35075 23.6427 2.35075 23.3333V4.66666C2.35075 4.35724 2.47367 4.06049 2.69246 3.8417C2.91125 3.62291 3.208 3.49999 3.51742 3.49999H8.18409V1.16666H10.5174V3.49999H17.5174V1.16666H19.8508V3.49999ZM17.5174 5.83332H10.5174V8.16666H8.18409V5.83332H4.68409V10.5H23.3508V5.83332H19.8508V8.16666H17.5174V5.83332ZM23.3508 12.8333H4.68409V22.1667H23.3508V12.8333Z" fill="#3E4958"/>
</g>
</g>
<defs>
<clipPath id="clip0_2_110">
<rect width="28" height="28" fill="white" transform="translate(0.0174255)"/>
</clipPath>
</defs>
</svg>
