<svg width="29" height="28" viewBox="0 0 29 28" fill="none" xmlns="http://www.w3.org/2000/svg">
<g id="home-line" opacity="0.5" clip-path="url(#clip0_2_97)">
<g id="Group">
<path id="Vector" d="M24.7892 23.3333C24.7892 23.6427 24.6663 23.9395 24.4475 24.1583C24.2287 24.3771 23.9319 24.5 23.6225 24.5H4.95585C4.64643 24.5 4.34969 24.3771 4.13089 24.1583C3.9121 23.9395 3.78918 23.6427 3.78918 23.3333V11.0716C3.78906 10.8939 3.82957 10.7184 3.90762 10.5587C3.98567 10.3989 4.09919 10.2591 4.23952 10.15L13.5729 2.89098C13.7777 2.73167 14.0297 2.64517 14.2892 2.64517C14.5487 2.64517 14.8007 2.73167 15.0055 2.89098L24.3389 10.15C24.4792 10.2591 24.5927 10.3989 24.6708 10.5587C24.7488 10.7184 24.7893 10.8939 24.7892 11.0716V23.3333ZM22.4559 22.1666V11.641L14.2892 5.28965L6.12252 11.641V22.1666H22.4559Z" fill="#3E4958"/>
</g>
</g>
<defs>
<clipPath id="clip0_2_97">
<rect width="28" height="28" fill="white" transform="translate(0.289185)"/>
</clipPath>
</defs>
</svg>
