<svg width="29" height="28" viewBox="0 0 29 28" fill="none" xmlns="http://www.w3.org/2000/svg">
<g id="user-3-line (1)" opacity="0.5" clip-path="url(#clip0_2_129)">
<g id="Group">
<path id="Vector" d="M23.8072 25.6667H21.4739V23.3333C21.4739 22.4051 21.1051 21.5148 20.4488 20.8584C19.7924 20.2021 18.9021 19.8333 17.9739 19.8333H10.9739C10.0456 19.8333 9.15539 20.2021 8.49901 20.8584C7.84263 21.5148 7.47388 22.4051 7.47388 23.3333V25.6667H5.14055V23.3333C5.14055 21.7862 5.75513 20.3025 6.84909 19.2085C7.94305 18.1146 9.42679 17.5 10.9739 17.5H17.9739C19.521 17.5 21.0047 18.1146 22.0987 19.2085C23.1926 20.3025 23.8072 21.7862 23.8072 23.3333V25.6667ZM14.4739 15.1667C13.5546 15.1667 12.6444 14.9856 11.7951 14.6338C10.9458 14.282 10.1741 13.7664 9.52413 13.1164C8.87412 12.4664 8.35851 11.6947 8.00672 10.8454C7.65494 9.99616 7.47388 9.08591 7.47388 8.16666C7.47388 7.2474 7.65494 6.33715 8.00672 5.48787C8.35851 4.63859 8.87412 3.86692 9.52413 3.21691C10.1741 2.5669 10.9458 2.05128 11.7951 1.6995C12.6444 1.34772 13.5546 1.16666 14.4739 1.16666C16.3304 1.16666 18.1109 1.90415 19.4236 3.21691C20.7364 4.52966 21.4739 6.31014 21.4739 8.16666C21.4739 10.0232 20.7364 11.8036 19.4236 13.1164C18.1109 14.4292 16.3304 15.1667 14.4739 15.1667ZM14.4739 12.8333C15.7116 12.8333 16.8985 12.3417 17.7737 11.4665C18.6489 10.5913 19.1405 9.40433 19.1405 8.16666C19.1405 6.92898 18.6489 5.74199 17.7737 4.86682C16.8985 3.99166 15.7116 3.49999 14.4739 3.49999C13.2362 3.49999 12.0492 3.99166 11.174 4.86682C10.2989 5.74199 9.80721 6.92898 9.80721 8.16666C9.80721 9.40433 10.2989 10.5913 11.174 11.4665C12.0492 12.3417 13.2362 12.8333 14.4739 12.8333Z" fill="#3E4958"/>
</g>
</g>
<defs>
<clipPath id="clip0_2_129">
<rect width="28" height="28" fill="white" transform="translate(0.473877)"/>
</clipPath>
</defs>
</svg>
